<?xml version="1.0" encoding="iso-8859-1"?>
<!-- Uploaded to: SVG Repo, www.svgrepo.com, Generator: SVG Repo Mixer Tools -->
<svg fill="#000000" height="800px" width="800px" version="1.1" id="Layer_1" xmlns="http://www.w3.org/2000/svg" xmlns:xlink="http://www.w3.org/1999/xlink" 
	 viewBox="0 0 512 512" xml:space="preserve">
<g>
	<g>
		<path d="M426.667,149.333c0-29.485-19.929-54.287-47.051-61.716C362.201,34.313,314.873,0,256,0S149.799,34.313,132.385,87.618
			c-27.122,7.428-47.051,32.231-47.051,61.716c0,28.333,18.403,52.339,43.905,60.765l20.149,282.088
			C150.185,503.35,159.474,512,170.667,512h170.667c11.192,0,20.482-8.65,21.279-19.813l20.149-282.088
			C408.264,201.672,426.667,177.666,426.667,149.333z M256,42.667c34.101,0,61.585,15.992,76.333,42.667H179.667
			C194.415,58.659,221.899,42.667,256,42.667z M321.469,469.333H190.531l-18.286-256h167.51L321.469,469.333z M362.667,170.667
			H149.333c-11.791,0-21.333-9.542-21.333-21.333S137.542,128,149.333,128h213.333c11.791,0,21.333,9.542,21.333,21.333
			S374.458,170.667,362.667,170.667z"/>
	</g>
</g>
</svg>