<?xml version="1.0" encoding="iso-8859-1"?>
<!-- Uploaded to: SVG Repo, www.svgrepo.com, Generator: SVG Repo Mixer Tools -->
<svg fill="#000000" height="800px" width="800px" version="1.1" id="Layer_1" xmlns="http://www.w3.org/2000/svg" xmlns:xlink="http://www.w3.org/1999/xlink" 
	 viewBox="0 0 512 512" xml:space="preserve">
<g transform="translate(1 1)">
	<g>
		<g>
			<path d="M357.4,136.09v-17.623H383c13.653,0,25.6-11.093,25.6-25.6V24.6C408.6,10.947,397.507-1,383-1H127
				c-13.653,0-25.6,11.093-25.6,25.6v68.267c0,13.653,11.093,25.6,25.6,25.6h25.6v17.623c-33.555,4.235-59.733,33.054-59.733,67.71
				v25.6v187.733v25.6c0,37.547,30.72,68.267,68.267,68.267h187.733c37.547,0,68.267-30.72,68.267-68.267v-25.6V229.4v-25.6
				C417.133,169.144,390.955,140.325,357.4,136.09z M118.467,92.867v-8.533H203.8c4.267,0,8.533-3.413,8.533-8.533
				s-3.413-8.533-8.533-8.533h-85.333V50.2H152.6c4.267,0,8.533-3.413,8.533-8.533s-3.413-8.533-8.533-8.533h-34.133V24.6
				c0-4.267,3.413-8.533,8.533-8.533h256c4.267,0,8.533,3.413,8.533,8.533v8.533H306.2c-5.12,0-8.533,3.413-8.533,8.533
				c0,4.267,3.413,8.533,8.533,8.533h85.333v17.067H357.4c-4.267,0-8.533,3.413-8.533,8.533c0,4.267,3.413,8.533,8.533,8.533h34.133
				v8.533c0,4.267-3.413,8.533-8.533,8.533h-34.133H161.133H127C122.733,101.4,118.467,97.987,118.467,92.867z M340.333,118.467
				v17.067H169.667v-17.067H340.333z M161.133,152.6h187.733c28.16,0,51.2,23.04,51.2,51.2v17.067H109.933V203.8
				C109.933,175.64,132.973,152.6,161.133,152.6z M400.067,408.6H109.933V237.933h290.133V408.6z M348.867,493.933H161.133
				c-28.16,0-51.2-23.04-51.2-51.2v-17.067h290.133v17.067C400.067,470.893,377.027,493.933,348.867,493.933z"/>
			<path d="M220.867,332.653h49.493l-39.253,45.227c-3.413,3.413-2.56,8.533,0.853,11.947c1.707,0.853,4.267,1.707,5.973,1.707
				c2.56,0,5.12-0.853,6.827-2.56l51.2-59.733c1.707-2.56,2.56-5.973,0.853-9.387s-4.267-5.12-7.68-5.12H239.64l38.4-45.227
				c3.413-3.413,2.56-8.533-0.853-11.947s-8.533-2.56-11.947,0.853l-51.2,59.733c-1.707,2.56-2.56,5.973-0.853,9.387
				S217.453,332.653,220.867,332.653z"/>
		</g>
	</g>
</g>
</svg>