<svg version="1.1" id="Layer_1" xmlns="http://www.w3.org/2000/svg" xmlns:xlink="http://www.w3.org/1999/xlink" x="0px" y="0px"
	 width="100%" viewBox="0 0 1498 333" enable-background="new 0 0 1498 333" xml:space="preserve">
<path fill="#FEFEFE" opacity="00000" stroke="none"
	d="
M1109.000000,334.000000 
	C739.333374,334.000000 370.166718,334.000000 1.000050,334.000000 
	C1.000033,223.000031 1.000033,112.000061 1.000017,1.000064 
	C500.333282,1.000043 999.666565,1.000043 1499.000000,1.000021 
	C1499.000000,111.999939 1499.000000,222.999878 1499.000000,333.999908 
	C1369.166626,334.000000 1239.333374,334.000000 1109.000000,334.000000 
M681.105530,120.925613 
	C680.753540,120.944359 680.401489,120.963097 679.306274,120.922554 
	C669.800781,118.111023 660.463074,114.184715 650.754333,112.724052 
	C631.572815,109.838203 612.813477,111.399689 595.631409,122.075920 
	C577.110168,133.584244 573.319580,163.081009 589.394592,177.780670 
	C595.490356,183.354813 603.083435,187.465378 610.424011,191.451065 
	C616.655701,194.834641 623.547852,196.984253 630.066467,199.863846 
	C633.782654,201.505478 635.523743,204.497757 635.133179,208.684692 
	C634.754395,212.744736 632.341797,215.521667 628.683777,215.889893 
	C623.523804,216.409286 617.776611,217.103851 613.129028,215.403854 
	C604.540344,212.262283 596.567749,207.436569 587.953918,203.119675 
	C584.361206,209.082932 580.337524,215.761444 575.492676,223.803024 
	C575.492676,220.713348 575.492676,219.116364 575.492676,217.519363 
	C575.492737,198.519989 575.492554,179.520630 575.492920,160.521255 
	C575.493286,139.766296 567.871155,123.832756 547.403015,115.966339 
	C527.162659,108.187431 508.350250,110.029030 491.603119,124.512444 
	C487.758362,127.837517 484.563965,131.914597 480.867767,135.861847 
	C471.491821,119.622002 457.222412,113.658157 440.388885,111.776909 
	C422.994049,109.832947 409.320221,117.258362 396.296936,129.528000 
	C396.296936,123.956711 396.296936,119.742615 396.296936,115.168121 
	C394.104858,115.168121 392.470947,115.168114 390.837036,115.168121 
	C367.004486,115.168175 343.169250,115.358612 319.341461,115.021606 
	C314.020844,114.946358 311.615112,116.690964 309.505096,121.432098 
	C300.467560,141.739182 290.979279,161.845673 281.450104,182.469528 
	C280.401489,180.731400 279.590759,179.491730 278.881561,178.196457 
	C267.965424,158.259506 257.005463,138.346039 246.230408,118.333031 
	C244.916855,115.893318 243.500549,115.089424 240.835861,115.113457 
	C227.504074,115.233650 214.170578,115.167992 200.837692,115.167709 
	C198.268875,115.167648 195.700043,115.167694 192.368179,115.167694 
	C194.916672,119.829193 197.017685,123.672180 199.499939,128.212509 
	C171.968109,128.212509 145.112915,128.212509 118.197418,128.212509 
	C118.197418,140.886230 118.197418,153.003326 118.197418,165.490479 
	C134.318954,165.490479 150.249100,165.490479 167.472778,165.490479 
	C165.772644,171.817993 165.252579,178.023987 162.550446,183.058929 
	C151.791672,203.105957 123.611877,212.113983 102.817711,202.704971 
	C88.156853,196.071152 78.277290,184.809006 72.576843,170.012512 
	C63.232277,145.757080 64.665779,122.140091 78.749840,100.009659 
	C95.835526,73.162727 126.317085,66.958946 152.400070,85.171989 
	C158.482452,89.419151 163.114487,95.743362 168.676254,101.377754 
	C178.744659,90.303299 189.067093,78.949463 199.575684,67.390854 
	C194.407288,62.342312 190.107269,57.119167 184.848526,53.173927 
	C154.476044,30.387718 120.532387,25.796997 84.972961,36.815853 
	C56.342262,45.687695 36.703129,65.941574 24.853682,93.166374 
	C10.896146,125.234627 10.702264,157.825439 25.462738,189.651642 
	C42.677883,226.770508 78.502655,253.032089 123.543076,250.485916 
	C166.061478,248.082306 205.047501,223.207214 215.018097,176.155151 
	C216.185547,170.645859 215.854980,164.819138 216.248291,158.680511 
	C216.894562,159.378159 217.269638,159.655136 217.477600,160.025864 
	C229.408234,181.294128 241.360443,202.550568 253.154755,223.894257 
	C253.859680,225.169922 253.888489,227.455460 253.223969,228.756073 
	C243.308090,248.163483 233.222458,267.484161 223.176437,286.825073 
	C218.667191,295.506378 214.156876,304.187103 209.323975,313.489990 
	C226.567001,313.489990 242.883759,313.560852 259.197021,313.354889 
	C260.496124,313.338501 262.270691,311.672058 262.983154,310.326935 
	C276.117310,285.530182 289.174896,260.692474 302.142792,235.808243 
	C317.641907,206.066803 333.037537,176.271423 348.501404,146.511581 
	C348.958008,145.632858 349.678070,144.891037 351.124329,142.940109 
	C351.124329,178.431656 351.124329,212.474380 351.124329,246.525558 
	C366.476624,246.525558 381.373260,246.525558 396.491577,246.525558 
	C396.491577,244.394348 396.491516,242.567902 396.491547,240.741440 
	C396.491974,217.242218 396.420929,193.742661 396.530884,170.243958 
	C396.570221,161.843033 399.057953,154.153397 407.078888,150.239090 
	C414.936096,146.404678 423.306244,146.612579 430.798279,151.513458 
	C438.684357,156.672104 440.521362,164.854691 440.513275,173.691925 
	C440.492706,196.191162 440.502045,218.690430 440.517731,241.189682 
	C440.518982,242.950882 440.662659,244.712006 440.746857,246.625031 
	C456.022308,246.625031 470.775635,246.625031 485.999573,246.625031 
	C485.999573,244.638702 485.999573,242.853149 485.999573,241.067596 
	C485.999573,217.401718 485.969208,193.735764 486.013397,170.069977 
	C486.033081,159.536285 491.104340,151.767670 499.575684,148.988846 
	C515.440491,143.784744 529.834717,154.125381 529.957764,171.115601 
	C530.126831,194.446945 530.000366,217.780411 530.000427,241.112976 
	C530.000427,242.893982 530.000427,244.675003 530.000427,246.582382 
	C545.410339,246.582382 560.314636,246.582382 575.683716,246.582382 
	C575.683716,243.601120 575.683716,240.869751 575.683716,237.717163 
	C577.913330,238.987152 579.570862,240.002411 581.290039,240.899704 
	C601.664673,251.533783 623.164001,252.651443 645.279114,248.382919 
	C658.761475,245.780640 670.586060,240.453323 677.929504,228.020691 
	C679.203979,225.863022 680.192444,223.536423 681.313049,221.287842 
	C681.542603,221.367279 681.772156,221.446732 682.001709,221.526184 
	C682.001709,229.805038 682.001709,238.083893 682.001709,246.473709 
	C697.112549,246.473709 711.979309,246.473709 726.999573,246.473709 
	C726.999573,222.452652 727.046936,198.790390 726.969604,175.128525 
	C726.947571,168.381699 728.754944,162.436203 733.084961,157.174103 
	C741.658325,146.755219 756.495178,143.634277 766.468201,150.558960 
	C774.497559,156.133987 777.536011,164.257324 777.519653,173.795166 
	C777.481079,196.294357 777.501160,218.793655 777.518799,241.292892 
	C777.520142,243.042358 777.687500,244.791702 777.780212,246.590591 
	C793.104065,246.590591 807.855042,246.590591 823.094727,246.590591 
	C823.094727,234.514206 823.094727,222.670258 823.094727,209.758423 
	C840.210449,240.901108 867.231750,251.297684 899.767151,250.481461 
	C932.957764,249.648819 958.030029,235.450729 972.766724,204.513474 
	C972.766724,240.725418 972.766724,276.937378 972.766724,313.318726 
	C987.990601,313.318726 1002.770142,313.318726 1018.100586,313.318726 
	C1018.100586,287.217102 1018.100586,261.205353 1018.100586,234.961594 
	C1018.940308,235.305801 1019.284851,235.354828 1019.499451,235.548065 
	C1042.052368,255.859604 1080.704956,255.775024 1102.936035,235.354553 
	C1132.515137,208.184280 1134.641113,161.018127 1107.623779,131.354523 
	C1088.019043,109.829590 1053.980469,104.918045 1029.539551,120.280762 
	C1025.425293,122.866867 1021.835571,126.287560 1017.341309,129.847107 
	C1017.341309,124.660248 1017.341309,120.112846 1017.341309,115.537979 
	C1002.083069,115.537979 987.391907,115.537979 972.568115,115.537979 
	C972.568115,129.995621 972.568115,144.083649 972.568115,159.435440 
	C957.979065,127.094513 932.706665,112.529022 899.340149,111.635201 
	C866.201843,110.747482 839.698914,123.231773 822.645081,153.872604 
	C819.234009,129.754837 803.525696,119.014229 782.649536,113.597870 
	C761.350098,108.071693 742.856812,113.231453 726.770874,130.025696 
	C726.770874,94.445396 726.770874,60.500168 726.770874,26.398830 
	C711.753052,26.398830 697.006531,26.398830 681.834106,26.398830 
	C681.834106,28.410088 681.837646,30.205494 681.833618,32.000885 
	C681.766968,61.660484 681.699402,91.320084 681.105530,120.925613 
M1330.910767,152.631714 
	C1330.316650,151.571716 1329.640747,150.548737 1329.141724,149.445694 
	C1326.509766,143.626099 1324.583496,137.362793 1321.177002,132.044876 
	C1314.824097,122.127914 1304.263550,117.927246 1293.580078,114.678810 
	C1278.717407,110.159599 1263.815674,109.390305 1249.820557,117.697258 
	C1244.618774,120.784798 1239.897095,124.681404 1234.430908,128.584335 
	C1234.430908,124.064331 1234.430908,119.848557 1234.430908,115.480179 
	C1218.992676,115.480179 1204.114502,115.480179 1189.281250,115.480179 
	C1189.281250,159.362213 1189.281250,202.930771 1189.281250,246.544800 
	C1204.462646,246.544800 1219.361328,246.544800 1234.493164,246.544800 
	C1234.493164,222.608932 1234.634277,198.959259 1234.414429,175.312943 
	C1234.340332,167.329315 1236.881226,160.797241 1242.386108,155.134613 
	C1251.350220,145.913635 1265.159668,143.947357 1274.904541,151.266159 
	C1282.495728,156.967468 1285.037231,165.272461 1285.016357,174.547394 
	C1284.966187,196.704117 1285.000244,218.861023 1285.000244,241.017853 
	C1285.000244,242.807861 1285.000244,244.597885 1285.000244,246.461914 
	C1300.286987,246.461914 1315.137939,246.461914 1330.254639,246.461914 
	C1330.254639,234.187271 1330.254639,222.281006 1330.254639,209.308578 
	C1331.447632,211.279831 1332.168213,212.313324 1332.731689,213.426315 
	C1337.180176,222.212601 1343.737671,229.214737 1351.577148,234.958969 
	C1370.036865,248.485199 1391.071289,251.988846 1413.333008,250.152588 
	C1435.086670,248.358231 1453.410034,239.972870 1468.021606,223.164337 
	C1485.768433,202.748947 1488.536987,165.083908 1469.386841,141.144531 
	C1454.151001,122.098259 1433.854614,112.688782 1409.772095,111.703278 
	C1376.150513,110.327400 1348.657959,121.449448 1330.910767,152.631714 
M1138.470947,195.822769 
	C1128.702148,201.892746 1123.545166,210.433624 1123.792480,222.180222 
	C1124.086060,236.122635 1134.287842,248.062195 1148.077148,250.183929 
	C1162.637939,252.424393 1176.820923,243.985764 1180.802612,230.321289 
	C1184.389893,218.010361 1181.592773,207.050201 1171.651245,198.827133 
	C1161.801270,190.679794 1150.658203,189.892014 1138.470947,195.822769 
z"/>
<path fill="#FFFFFF" opacity="1.000000" stroke="none"
	d="
M681.632019,120.979683 
	C681.699402,91.320084 681.766968,61.660484 681.833618,32.000885 
	C681.837646,30.205494 681.834106,28.410088 681.834106,26.398830 
	C697.006531,26.398830 711.753052,26.398830 726.770874,26.398830 
	C726.770874,60.500168 726.770874,94.445396 726.770874,130.025696 
	C742.856812,113.231453 761.350098,108.071693 782.649536,113.597870 
	C803.525696,119.014229 819.234009,129.754837 822.645081,153.872604 
	C839.698914,123.231773 866.201843,110.747482 899.340149,111.635201 
	C932.706665,112.529022 957.979065,127.094513 972.568115,159.435440 
	C972.568115,144.083649 972.568115,129.995621 972.568115,115.537979 
	C987.391907,115.537979 1002.083069,115.537979 1017.341309,115.537979 
	C1017.341309,120.112846 1017.341309,124.660248 1017.341309,129.847107 
	C1021.835571,126.287560 1025.425293,122.866867 1029.539551,120.280762 
	C1053.980469,104.918045 1088.019043,109.829590 1107.623779,131.354523 
	C1134.641113,161.018127 1132.515137,208.184280 1102.936035,235.354553 
	C1080.704956,255.775024 1042.052368,255.859604 1019.499451,235.548065 
	C1019.284851,235.354828 1018.940308,235.305801 1018.100586,234.961594 
	C1018.100586,261.205353 1018.100586,287.217102 1018.100586,313.318726 
	C1002.770142,313.318726 987.990601,313.318726 972.766724,313.318726 
	C972.766724,276.937378 972.766724,240.725418 972.766724,204.513474 
	C958.030029,235.450729 932.957764,249.648819 899.767151,250.481461 
	C867.231750,251.297684 840.210449,240.901108 823.094727,209.758423 
	C823.094727,222.670258 823.094727,234.514206 823.094727,246.590591 
	C807.855042,246.590591 793.104065,246.590591 777.780212,246.590591 
	C777.687500,244.791702 777.520142,243.042358 777.518799,241.292892 
	C777.501160,218.793655 777.481079,196.294357 777.519653,173.795166 
	C777.536011,164.257324 774.497559,156.133987 766.468201,150.558960 
	C756.495178,143.634277 741.658325,146.755219 733.084961,157.174103 
	C728.754944,162.436203 726.947571,168.381699 726.969604,175.128525 
	C727.046936,198.790390 726.999573,222.452652 726.999573,246.473709 
	C711.979309,246.473709 697.112549,246.473709 682.001709,246.473709 
	C682.001709,238.083893 682.001709,229.805038 682.001709,221.526184 
	C681.772156,221.446732 681.542603,221.367279 681.313049,221.287842 
	C680.192444,223.536423 679.203979,225.863022 677.929504,228.020691 
	C670.586060,240.453323 658.761475,245.780640 645.279114,248.382919 
	C623.164001,252.651443 601.664673,251.533783 581.290039,240.899704 
	C579.570862,240.002411 577.913330,238.987152 575.683716,237.717163 
	C575.683716,240.869751 575.683716,243.601120 575.683716,246.582382 
	C560.314636,246.582382 545.410339,246.582382 530.000427,246.582382 
	C530.000427,244.675003 530.000427,242.893982 530.000427,241.112976 
	C530.000366,217.780411 530.126831,194.446945 529.957764,171.115601 
	C529.834717,154.125381 515.440491,143.784744 499.575684,148.988846 
	C491.104340,151.767670 486.033081,159.536285 486.013397,170.069977 
	C485.969208,193.735764 485.999573,217.401718 485.999573,241.067596 
	C485.999573,242.853149 485.999573,244.638702 485.999573,246.625031 
	C470.775635,246.625031 456.022308,246.625031 440.746857,246.625031 
	C440.662659,244.712006 440.518982,242.950882 440.517731,241.189682 
	C440.502045,218.690430 440.492706,196.191162 440.513275,173.691925 
	C440.521362,164.854691 438.684357,156.672104 430.798279,151.513458 
	C423.306244,146.612579 414.936096,146.404678 407.078888,150.239090 
	C399.057953,154.153397 396.570221,161.843033 396.530884,170.243958 
	C396.420929,193.742661 396.491974,217.242218 396.491547,240.741440 
	C396.491516,242.567902 396.491577,244.394348 396.491577,246.525558 
	C381.373260,246.525558 366.476624,246.525558 351.124329,246.525558 
	C351.124329,212.474380 351.124329,178.431656 351.124329,142.940109 
	C349.678070,144.891037 348.958008,145.632858 348.501404,146.511581 
	C333.037537,176.271423 317.641907,206.066803 302.142792,235.808243 
	C289.174896,260.692474 276.117310,285.530182 262.983154,310.326935 
	C262.270691,311.672058 260.496124,313.338501 259.197021,313.354889 
	C242.883759,313.560852 226.567001,313.489990 209.323975,313.489990 
	C214.156876,304.187103 218.667191,295.506378 223.176437,286.825073 
	C233.222458,267.484161 243.308090,248.163483 253.223969,228.756073 
	C253.888489,227.455460 253.859680,225.169922 253.154755,223.894257 
	C241.360443,202.550568 229.408234,181.294128 217.477600,160.025864 
	C217.269638,159.655136 216.894562,159.378159 216.248291,158.680511 
	C215.854980,164.819138 216.185547,170.645859 215.018097,176.155151 
	C205.047501,223.207214 166.061478,248.082306 123.543076,250.485916 
	C78.502655,253.032089 42.677883,226.770508 25.462738,189.651642 
	C10.702264,157.825439 10.896146,125.234627 24.853682,93.166374 
	C36.703129,65.941574 56.342262,45.687695 84.972961,36.815853 
	C120.532387,25.796997 154.476044,30.387718 184.848526,53.173927 
	C190.107269,57.119167 194.407288,62.342312 199.575684,67.390854 
	C189.067093,78.949463 178.744659,90.303299 168.676254,101.377754 
	C163.114487,95.743362 158.482452,89.419151 152.400070,85.171989 
	C126.317085,66.958946 95.835526,73.162727 78.749840,100.009659 
	C64.665779,122.140091 63.232277,145.757080 72.576843,170.012512 
	C78.277290,184.809006 88.156853,196.071152 102.817711,202.704971 
	C123.611877,212.113983 151.791672,203.105957 162.550446,183.058929 
	C165.252579,178.023987 165.772644,171.817993 167.472778,165.490479 
	C150.249100,165.490479 134.318954,165.490479 118.197418,165.490479 
	C118.197418,153.003326 118.197418,140.886230 118.197418,128.212509 
	C145.112915,128.212509 171.968109,128.212509 199.499939,128.212509 
	C197.017685,123.672180 194.916672,119.829193 192.368179,115.167694 
	C195.700043,115.167694 198.268875,115.167648 200.837692,115.167709 
	C214.170578,115.167992 227.504074,115.233650 240.835861,115.113457 
	C243.500549,115.089424 244.916855,115.893318 246.230408,118.333031 
	C257.005463,138.346039 267.965424,158.259506 278.881561,178.196457 
	C279.590759,179.491730 280.401489,180.731400 281.450104,182.469528 
	C290.979279,161.845673 300.467560,141.739182 309.505096,121.432098 
	C311.615112,116.690964 314.020844,114.946358 319.341461,115.021606 
	C343.169250,115.358612 367.004486,115.168175 390.837036,115.168121 
	C392.470947,115.168114 394.104858,115.168121 396.296936,115.168121 
	C396.296936,119.742615 396.296936,123.956711 396.296936,129.528000 
	C409.320221,117.258362 422.994049,109.832947 440.388885,111.776909 
	C457.222412,113.658157 471.491821,119.622002 480.867767,135.861847 
	C484.563965,131.914597 487.758362,127.837517 491.603119,124.512444 
	C508.350250,110.029030 527.162659,108.187431 547.403015,115.966339 
	C567.871155,123.832756 575.493286,139.766296 575.492920,160.521255 
	C575.492554,179.520630 575.492737,198.519989 575.492676,217.519363 
	C575.492676,219.116364 575.492676,220.713348 575.492676,223.803024 
	C580.337524,215.761444 584.361206,209.082932 587.953918,203.119675 
	C596.567749,207.436569 604.540344,212.262283 613.129028,215.403854 
	C617.776611,217.103851 623.523804,216.409286 628.683777,215.889893 
	C632.341797,215.521667 634.754395,212.744736 635.133179,208.684692 
	C635.523743,204.497757 633.782654,201.505478 630.066467,199.863846 
	C623.547852,196.984253 616.655701,194.834641 610.424011,191.451065 
	C603.083435,187.465378 595.490356,183.354813 589.394592,177.780670 
	C573.319580,163.081009 577.110168,133.584244 595.631409,122.075920 
	C612.813477,111.399689 631.572815,109.838203 650.754333,112.724052 
	C660.463074,114.184715 669.800781,118.111023 679.847656,121.312073 
	C675.713440,131.501526 671.037903,141.301453 666.260620,151.314606 
	C663.130859,149.967407 660.608948,148.783539 658.016052,147.783478 
	C648.945312,144.285004 639.698181,142.040344 629.856628,143.776642 
	C626.342651,144.396591 623.400757,145.509903 622.842712,149.563660 
	C622.290771,153.573639 624.214050,156.447617 627.637939,158.002151 
	C632.150635,160.050949 636.782410,161.962036 641.535767,163.333588 
	C658.357300,168.187347 673.431885,175.321960 681.632019,192.876862 
	C681.632019,168.432892 681.632019,144.706284 681.632019,120.979683 
M1076.171387,192.555466 
	C1083.204102,169.111115 1070.086304,150.087814 1046.937012,150.160065 
	C1032.001221,150.206680 1019.678101,160.651230 1017.447327,175.154373 
	C1014.902466,191.699524 1023.161194,205.954041 1037.978394,210.497482 
	C1049.898438,214.152527 1066.975098,211.818222 1076.171387,192.555466 
M922.161987,163.491806 
	C919.194885,160.626801 916.620117,157.122574 913.187683,155.015732 
	C902.560120,148.492462 891.192261,148.165604 880.508118,154.392410 
	C869.708252,160.686646 865.343567,170.899231 865.958923,183.394867 
	C866.713440,198.717529 876.888855,209.749435 892.295471,211.580750 
	C908.454956,213.501541 921.911804,204.954697 925.892700,190.081528 
	C928.320007,181.012878 927.149109,172.316513 922.161987,163.491806 
z"/>
<path fill="#FFFFFF" opacity="1.000000" stroke="none"
	d="
M1331.064209,152.281189 
	C1348.657959,121.449448 1376.150513,110.327400 1409.772095,111.703278 
	C1433.854614,112.688782 1454.151001,122.098259 1469.386841,141.144531 
	C1488.536987,165.083908 1485.768433,202.748947 1468.021606,223.164337 
	C1453.410034,239.972870 1435.086670,248.358231 1413.333008,250.152588 
	C1391.071289,251.988846 1370.036865,248.485199 1351.577148,234.958969 
	C1343.737671,229.214737 1337.180176,222.212601 1332.731689,213.426315 
	C1332.168213,212.313324 1331.447632,211.279831 1330.254639,209.308578 
	C1330.254639,222.281006 1330.254639,234.187271 1330.254639,246.461914 
	C1315.137939,246.461914 1300.286987,246.461914 1285.000244,246.461914 
	C1285.000244,244.597885 1285.000244,242.807861 1285.000244,241.017853 
	C1285.000244,218.861023 1284.966187,196.704117 1285.016357,174.547394 
	C1285.037231,165.272461 1282.495728,156.967468 1274.904541,151.266159 
	C1265.159668,143.947357 1251.350220,145.913635 1242.386108,155.134613 
	C1236.881226,160.797241 1234.340332,167.329315 1234.414429,175.312943 
	C1234.634277,198.959259 1234.493164,222.608932 1234.493164,246.544800 
	C1219.361328,246.544800 1204.462646,246.544800 1189.281250,246.544800 
	C1189.281250,202.930771 1189.281250,159.362213 1189.281250,115.480179 
	C1204.114502,115.480179 1218.992676,115.480179 1234.430908,115.480179 
	C1234.430908,119.848557 1234.430908,124.064331 1234.430908,128.584335 
	C1239.897095,124.681404 1244.618774,120.784798 1249.820557,117.697258 
	C1263.815674,109.390305 1278.717407,110.159599 1293.580078,114.678810 
	C1304.263550,117.927246 1314.824097,122.127914 1321.177002,132.044876 
	C1324.583496,137.362793 1326.509766,143.626099 1329.141724,149.445694 
	C1329.640747,150.548737 1330.316650,151.571716 1331.064209,152.281189 
M1414.534912,210.177155 
	C1429.904175,204.170120 1437.833252,188.365112 1433.330078,172.712769 
	C1428.128296,154.632339 1409.840088,145.603607 1392.003418,152.309952 
	C1376.176392,158.260696 1368.481201,178.645416 1375.939819,194.862259 
	C1382.389893,208.886292 1396.509521,214.688873 1414.534912,210.177155 
z"/>
<path fill="#FFFFFF" opacity="1.000000" stroke="none"
	d="
M1138.791016,195.618378 
	C1150.658203,189.892014 1161.801270,190.679794 1171.651245,198.827133 
	C1181.592773,207.050201 1184.389893,218.010361 1180.802612,230.321289 
	C1176.820923,243.985764 1162.637939,252.424393 1148.077148,250.183929 
	C1134.287842,248.062195 1124.086060,236.122635 1123.792480,222.180222 
	C1123.545166,210.433624 1128.702148,201.892746 1138.791016,195.618378 
z"/>
<path fill="#F3F3F3" opacity="00000" stroke="none"
	d="
M681.368774,120.952652 
	C681.632019,144.706284 681.632019,168.432892 681.632019,192.876862 
	C673.431885,175.321960 658.357300,168.187347 641.535767,163.333588 
	C636.782410,161.962036 632.150635,160.050949 627.637939,158.002151 
	C624.214050,156.447617 622.290771,153.573639 622.842712,149.563660 
	C623.400757,145.509903 626.342651,144.396591 629.856628,143.776642 
	C639.698181,142.040344 648.945312,144.285004 658.016052,147.783478 
	C660.608948,148.783539 663.130859,149.967407 666.260620,151.314606 
	C671.037903,141.301453 675.713440,131.501526 680.219238,121.341721 
	C680.401489,120.963097 680.753540,120.944359 681.368774,120.952652 
z"/>
<path fill="#FBFBFB" opacity="00000" stroke="none"
	d="
M1076.096680,192.941742 
	C1066.975098,211.818222 1049.898438,214.152527 1037.978394,210.497482 
	C1023.161194,205.954041 1014.902466,191.699524 1017.447327,175.154373 
	C1019.678101,160.651230 1032.001221,150.206680 1046.937012,150.160065 
	C1070.086304,150.087814 1083.204102,169.111115 1076.096680,192.941742 
z"/>
<path fill="#FCFCFC" opacity="00000" stroke="none"
	d="
M922.371826,163.793854 
	C927.149109,172.316513 928.320007,181.012878 925.892700,190.081528 
	C921.911804,204.954697 908.454956,213.501541 892.295471,211.580750 
	C876.888855,209.749435 866.713440,198.717529 865.958923,183.394867 
	C865.343567,170.899231 869.708252,160.686646 880.508118,154.392410 
	C891.192261,148.165604 902.560120,148.492462 913.187683,155.015732 
	C916.620117,157.122574 919.194885,160.626801 922.371826,163.793854 
z"/>
<path fill="#FBFBFB" opacity="00000" stroke="none"
	d="
M1414.147949,210.291199 
	C1396.509521,214.688873 1382.389893,208.886292 1375.939819,194.862259 
	C1368.481201,178.645416 1376.176392,158.260696 1392.003418,152.309952 
	C1409.840088,145.603607 1428.128296,154.632339 1433.330078,172.712769 
	C1437.833252,188.365112 1429.904175,204.170120 1414.147949,210.291199 
z"/>
</svg>