<svg viewBox="0 20.999999999999996 226.19799999999998 238.5" width="226.19799999999998" y="0px" x="0px" xmlns="http://www.w3.org/2000/svg" id="Layer_1" version="1.1" style="max-height: 500px" height="238.5">
    <defs>

    </defs>
    <path id="object-1" style="" d="M 172.38 253.707 C 115.623 253.707 58.943 253.707 2.263 253.707 C 2.263 178.722 2.263 103.739 2.263 28.755 C 78.929 28.755 155.594 28.755 232.259 28.755 C 232.259 103.739 232.259 178.722 232.259 253.707 C 212.325 253.707 192.391 253.707 172.38 253.707 M 106.683 109.768 C 106.629 109.78 106.575 109.794 106.407 109.767 C 104.948 107.867 103.514 105.215 102.023 104.227 C 99.078 102.278 96.198 103.334 93.56 110.545 C 90.716 118.319 90.135 138.246 92.602 148.176 C 93.538 151.941 94.704 154.718 95.831 157.41 C 96.788 159.697 97.846 161.148 98.847 163.094 C 99.418 164.202 99.685 166.225 99.625 169.053 C 99.567 171.796 99.196 173.671 98.635 173.919 C 97.842 174.271 96.96 174.74 96.246 173.591 C 94.928 171.47 93.704 168.21 92.381 165.294 C 91.829 169.322 91.212 173.833 90.468 179.265 C 90.468 177.178 90.468 176.098 90.468 175.02 C 90.468 162.186 90.468 149.352 90.468 136.517 C 90.468 122.496 89.298 111.732 86.155 106.418 C 83.048 101.163 80.159 102.408 77.588 112.191 C 76.998 114.438 76.508 117.193 75.939 119.858 C 74.5 108.888 72.309 104.858 69.725 103.588 C 67.054 102.274 64.955 107.291 62.955 115.579 C 62.955 111.816 62.955 108.969 62.955 105.88 C 62.619 105.88 62.367 105.88 62.117 105.88 C 58.457 105.88 54.798 106.008 51.139 105.78 C 50.323 105.729 49.953 106.908 49.63 110.11 C 48.242 123.828 46.785 137.411 45.322 151.343 C 45.161 150.169 45.037 149.332 44.927 148.456 C 43.251 134.989 41.569 121.536 39.914 108.017 C 39.713 106.368 39.495 105.826 39.086 105.842 C 37.039 105.924 34.992 105.88 32.945 105.88 C 32.551 105.88 32.156 105.88 31.645 105.88 C 32.036 109.028 32.359 111.623 32.74 114.691 C 28.513 114.691 24.389 114.691 20.257 114.691 C 20.257 123.253 20.257 131.438 20.257 139.873 C 22.732 139.873 25.178 139.873 27.822 139.873 C 27.562 144.147 27.481 148.341 27.067 151.741 C 25.415 165.284 21.088 171.368 17.896 165.013 C 15.645 160.532 14.127 152.923 13.253 142.928 C 11.818 126.543 12.038 110.588 14.2 95.639 C 16.824 77.503 21.504 73.313 25.508 85.615 C 26.442 88.484 27.153 92.757 28.007 96.564 C 29.553 89.081 31.138 81.412 32.752 73.604 C 31.958 70.194 31.298 66.665 30.49 64 C 25.827 48.608 20.615 45.506 15.156 52.95 C 10.76 58.943 7.745 72.626 5.926 91.016 C 3.782 112.679 3.753 134.695 6.019 156.195 C 8.662 181.27 14.163 199.011 21.077 197.29 C 27.606 195.667 33.591 178.862 35.122 147.078 C 35.302 143.356 35.251 139.42 35.311 135.273 C 35.411 135.744 35.468 135.931 35.5 136.182 C 37.332 150.549 39.167 164.909 40.978 179.327 C 41.086 180.19 41.09 181.732 40.988 182.611 C 39.466 195.721 37.917 208.773 36.375 221.838 C 35.683 227.703 70.202 162.917 69.46 169.202 C 72.107 169.202 39.401 239.9 41.905 239.76 C 42.105 239.75 42.377 238.623 42.487 237.715 C 44.503 220.964 46.508 204.184 48.499 187.375 C 50.879 167.284 53.243 147.157 55.616 127.053 C 55.687 126.459 55.798 125.957 56.02 124.64 C 56.02 148.616 56.02 171.612 56.02 194.615 C 58.377 194.615 60.664 194.615 62.985 194.615 C 62.985 193.175 62.985 191.942 62.985 190.708 C 62.985 174.834 62.974 158.959 62.991 143.084 C 62.997 137.409 63.379 132.215 64.611 129.571 C 65.817 126.981 67.102 127.121 68.252 130.431 C 69.463 133.916 69.745 139.444 69.744 145.414 C 69.741 160.612 69.742 175.812 69.745 191.011 C 69.745 192.2 69.767 193.389 69.78 194.682 C 72.125 194.682 74.391 194.682 76.727 194.682 C 76.727 193.341 76.727 192.134 76.727 190.928 C 76.727 174.941 76.723 158.954 76.73 142.967 C 76.732 135.851 77.511 130.604 78.812 128.725 C 81.248 125.211 83.458 132.195 83.477 143.674 C 83.502 159.434 83.483 175.197 83.483 190.958 C 83.483 192.162 83.483 193.365 83.483 194.653 C 85.849 194.653 88.138 194.653 90.497 194.653 C 90.497 192.64 90.497 190.795 90.497 188.665 C 90.84 189.523 91.094 190.208 91.358 190.815 C 94.486 197.999 97.787 198.752 101.182 195.87 C 103.252 194.112 105.068 190.513 106.196 182.114 C 106.391 180.657 106.543 179.084 106.715 177.567 C 106.751 177.62 106.785 177.674 106.821 177.727 C 106.821 183.32 106.821 188.912 106.821 194.58 C 109.141 194.58 111.423 194.58 113.73 194.58 C 113.73 178.353 113.737 162.368 113.725 146.384 C 113.722 141.827 113.999 137.81 114.664 134.256 C 115.98 127.217 118.258 125.108 119.789 129.787 C 121.022 133.553 121.489 139.04 121.486 145.484 C 121.48 160.683 121.484 175.882 121.486 191.08 C 121.486 192.262 121.512 193.444 121.526 194.66 C 123.879 194.66 126.144 194.66 128.484 194.66 C 128.484 186.501 128.484 178.5 128.484 169.777 C 131.112 190.815 135.26 197.839 140.255 197.287 C 145.352 196.725 149.201 187.135 151.464 166.234 C 151.464 190.697 151.464 215.159 151.464 239.736 C 153.801 239.736 156.07 239.736 158.423 239.736 C 158.423 222.103 158.423 204.531 158.423 186.804 C 158.552 187.036 158.606 187.068 158.638 187.199 C 162.102 200.92 168.036 200.863 171.449 187.068 C 175.991 168.714 176.316 136.852 172.169 116.814 C 169.158 102.272 163.932 98.955 160.18 109.332 C 159.549 111.08 158.998 113.39 158.307 115.795 C 158.307 112.291 158.307 109.219 158.307 106.129 C 155.965 106.129 153.709 106.129 151.433 106.129 C 151.433 115.896 151.433 125.412 151.433 135.782 C 149.193 113.936 145.313 104.097 140.19 103.492 C 135.102 102.893 131.033 111.326 128.415 132.026 C 127.891 115.733 125.479 108.476 122.274 104.818 C 119.003 101.085 116.164 104.57 113.695 115.916 C 113.695 91.88 113.695 68.949 113.695 45.913 C 111.389 45.913 109.125 45.913 106.795 45.913 C 106.795 47.271 106.796 48.484 106.795 49.697 C 106.785 69.732 106.774 89.769 106.683 109.768 M 206.451 131.188 C 206.359 130.471 206.256 129.78 206.178 129.035 C 205.775 125.103 205.481 120.872 204.957 117.28 C 203.983 110.58 202.361 107.742 200.719 105.549 C 198.437 102.496 196.15 101.976 194 107.587 C 193.202 109.673 192.478 112.306 191.638 114.942 C 191.638 111.889 191.638 109.041 191.638 106.089 C 189.268 106.089 186.984 106.089 184.706 106.089 C 184.706 135.734 184.706 165.165 184.706 194.628 C 187.038 194.628 189.324 194.628 191.648 194.628 C 191.648 178.459 191.67 162.483 191.636 146.508 C 191.624 141.115 192.013 136.703 192.86 132.878 C 194.235 126.649 196.356 125.321 197.853 130.264 C 199.018 134.116 199.408 139.726 199.406 145.991 C 199.398 160.959 199.402 175.927 199.402 190.895 C 199.402 192.103 199.402 193.312 199.402 194.572 C 201.75 194.572 204.029 194.572 206.352 194.572 C 206.352 186.28 206.352 178.236 206.352 169.474 C 206.533 170.806 206.644 171.504 206.73 172.255 C 207.414 178.192 208.421 182.922 209.625 186.802 C 212.458 195.939 215.688 198.305 219.107 197.065 C 222.447 195.854 225.258 190.189 227.505 178.833 C 230.228 165.043 230.653 139.598 227.713 123.428 C 225.373 110.56 222.258 104.204 218.56 103.538 C 213.397 102.609 209.177 110.122 206.451 131.188 M 176.904 160.364 C 175.405 164.464 174.613 170.234 174.652 178.168 C 174.697 187.587 176.263 195.653 178.38 197.086 C 180.616 198.599 182.793 192.9 183.405 183.668 C 183.955 175.352 183.526 167.948 181.999 162.393 C 180.487 156.889 178.776 156.358 176.904 160.364 Z" stroke="none" opacity="00000" fill="#FEFEFE"/>
    <path d="M 681.632 120.98 C 681.699 91.32 681.767 61.66 681.834 32.001 C 681.838 30.205 681.834 28.41 681.834 26.399 C 697.007 26.399 711.753 26.399 726.771 26.399 C 726.771 60.5 726.771 94.445 726.771 130.026 C 742.857 113.231 761.35 108.072 782.65 113.598 C 803.526 119.014 819.234 129.755 822.645 153.873 C 839.699 123.232 866.202 110.747 899.34 111.635 C 932.707 112.529 957.979 127.095 972.568 159.435 C 972.568 144.084 972.568 129.996 972.568 115.538 C 987.392 115.538 1002.083 115.538 1017.341 115.538 C 1017.341 120.113 1017.341 124.66 1017.341 129.847 C 1021.836 126.288 1025.425 122.867 1029.54 120.281 C 1053.98 104.918 1088.019 109.83 1107.624 131.355 C 1134.641 161.018 1132.515 208.184 1102.936 235.355 C 1080.705 255.775 1042.052 255.86 1019.499 235.548 C 1019.285 235.355 1018.94 235.306 1018.101 234.962 C 1018.101 261.205 1018.101 287.217 1018.101 313.319 C 1002.77 313.319 987.991 313.319 972.767 313.319 C 972.767 276.937 972.767 240.725 972.767 204.513 C 958.03 235.451 932.958 249.649 899.767 250.481 C 867.232 251.298 840.21 240.901 823.095 209.758 C 823.095 222.67 823.095 234.514 823.095 246.591 C 807.855 246.591 793.104 246.591 777.78 246.591 C 777.688 244.792 777.52 243.042 777.519 241.293 C 777.501 218.794 777.481 196.294 777.52 173.795 C 777.536 164.257 774.498 156.134 766.468 150.559 C 756.495 143.634 741.658 146.755 733.085 157.174 C 728.755 162.436 726.948 168.382 726.97 175.129 C 727.047 198.79 727 222.453 727 246.474 C 711.979 246.474 697.113 246.474 682.002 246.474 C 682.002 238.084 682.002 229.805 682.002 221.526 C 681.772 221.447 681.543 221.367 681.313 221.288 C 680.192 223.536 679.204 225.863 677.93 228.021 C 670.586 240.453 658.761 245.781 645.279 248.383 C 623.164 252.651 601.665 251.534 581.29 240.9 C 579.571 240.002 577.913 238.987 575.684 237.717 C 575.684 240.87 575.684 243.601 575.684 246.582 C 560.315 246.582 545.41 246.582 530 246.582 C 530 244.675 530 242.894 530 241.113 C 530 217.78 530.127 194.447 529.958 171.116 C 529.835 154.125 515.44 143.785 499.576 148.989 C 491.104 151.768 486.033 159.536 486.013 170.07 C 485.969 193.736 486 217.402 486 241.068 C 486 242.853 486 244.639 486 246.625 C 470.776 246.625 456.022 246.625 440.747 246.625 C 440.663 244.712 440.519 242.951 440.518 241.19 C 440.502 218.69 440.493 196.191 440.513 173.692 C 440.521 164.855 438.684 156.672 430.798 151.513 C 423.306 146.613 414.936 146.405 407.079 150.239 C 399.058 154.153 396.57 161.843 396.531 170.244 C 396.421 193.743 396.492 217.242 396.492 240.741 C 396.492 242.568 396.492 244.394 396.492 246.526 C 381.373 246.526 366.477 246.526 351.124 246.526 C 351.124 212.474 351.124 178.432 351.124 142.94 C 349.678 144.891 348.958 145.633 348.501 146.512 C 333.038 176.271 317.642 206.067 302.143 235.808 C 289.175 260.692 276.117 285.53 262.983 310.327 C 262.271 311.672 260.496 313.339 259.197 313.355 C 242.884 313.561 226.567 313.49 209.324 313.49 C 214.157 304.187 218.667 295.506 223.176 286.825 C 233.222 267.484 253.922 237.335 263.838 217.928 C 264.502 216.627 390.054 95.084 389.349 93.808 M 217.544 129.134 C 217.336 128.763 216.895 159.378 216.248 158.681 C 215.855 164.819 216.186 170.646 215.018 176.155 C 205.048 223.207 166.061 248.082 123.543 250.486 C 78.503 253.032 42.678 226.771 25.463 189.652 C 10.702 157.825 10.896 125.235 24.854 93.166 C 36.703 65.942 56.342 45.688 84.973 36.816 C 120.532 25.797 154.476 30.388 184.849 53.174 C 190.107 57.119 194.407 62.342 199.576 67.391 C 189.067 78.949 178.745 90.303 168.676 101.378 C 163.114 95.743 158.482 89.419 152.4 85.172 C 126.317 66.959 95.836 73.163 78.75 100.01 C 64.666 122.14 63.232 145.757 72.577 170.013 C 78.277 184.809 88.157 196.071 102.818 202.705 C 123.612 212.114 151.792 203.106 162.55 183.059 C 165.253 178.024 165.773 171.818 167.473 165.49 C 150.249 165.49 134.319 165.49 118.197 165.49 C 118.197 153.003 118.197 140.886 118.197 128.213 M 281.45 182.47 C 290.979 161.846 300.468 141.739 309.505 121.432 C 311.615 116.691 314.021 114.946 319.341 115.022 C 343.169 115.359 367.004 115.168 390.837 115.168 C 392.471 115.168 394.105 115.168 396.297 115.168 C 396.297 119.743 396.297 123.957 396.297 129.528 C 409.32 117.258 422.994 109.833 440.389 111.777 C 457.222 113.658 471.492 119.622 480.868 135.862 C 484.564 131.915 487.758 127.838 491.603 124.512 C 508.35 110.029 527.163 108.187 547.403 115.966 C 567.871 123.833 575.493 139.766 575.493 160.521 C 575.493 179.521 575.493 198.52 575.493 217.519 C 575.493 219.116 575.493 220.713 575.493 223.803 C 580.338 215.761 584.361 209.083 587.954 203.12 C 596.568 207.437 604.54 212.262 613.129 215.404 C 617.777 217.104 623.524 216.409 628.684 215.89 C 632.342 215.522 634.754 212.745 635.133 208.685 C 635.524 204.498 633.783 201.505 630.066 199.864 C 623.548 196.984 616.656 194.835 610.424 191.451 C 603.083 187.465 595.49 183.355 589.395 177.781 C 573.32 163.081 577.11 133.584 595.631 122.076 C 612.813 111.4 631.573 109.838 650.754 112.724 C 660.463 114.185 669.801 118.111 679.848 121.312 C 675.713 131.502 671.038 141.301 666.261 151.315 C 663.131 149.967 660.609 148.784 658.016 147.783 C 648.945 144.285 639.698 142.04 629.857 143.777 C 626.343 144.397 623.401 145.51 622.843 149.564 C 622.291 153.574 624.214 156.448 627.638 158.002 C 632.151 160.051 636.782 161.962 641.536 163.334 C 658.357 168.187 673.432 175.322 681.632 192.877 C 681.632 168.433 681.632 144.706 681.632 120.98 M 1076.171 192.555 C 1083.204 169.111 1070.086 150.088 1046.937 150.16 C 1032.001 150.207 1019.678 160.651 1017.447 175.154 C 1014.902 191.7 1023.161 205.954 1037.978 210.497 C 1049.898 214.153 1066.975 211.818 1076.171 192.555 M 922.162 163.492 C 919.195 160.627 916.62 157.123 913.188 155.016 C 902.56 148.492 891.192 148.166 880.508 154.392 C 869.708 160.687 865.344 170.899 865.959 183.395 C 866.713 198.718 876.889 209.749 892.295 211.581 C 908.455 213.502 921.912 204.955 925.893 190.082 C 928.32 181.013 927.149 172.317 922.162 163.492 Z" stroke="none" opacity="1.000000" fill="#FFFFFF"/>
    <path d="M1331.064209,152.281189 C1348.657959,121.449448 1376.150513,110.327400 1409.772095,111.703278 C1433.854614,112.688782 1454.151001,122.098259 1469.386841,141.144531 C1488.536987,165.083908 1485.768433,202.748947 1468.021606,223.164337 C1453.410034,239.972870 1435.086670,248.358231 1413.333008,250.152588 C1391.071289,251.988846 1370.036865,248.485199 1351.577148,234.958969 C1343.737671,229.214737 1337.180176,222.212601 1332.731689,213.426315 C1332.168213,212.313324 1331.447632,211.279831 1330.254639,209.308578 C1330.254639,222.281006 1330.254639,234.187271 1330.254639,246.461914 C1315.137939,246.461914 1300.286987,246.461914 1285.000244,246.461914 C1285.000244,244.597885 1285.000244,242.807861 1285.000244,241.017853 C1285.000244,218.861023 1284.966187,196.704117 1285.016357,174.547394 C1285.037231,165.272461 1282.495728,156.967468 1274.904541,151.266159 C1265.159668,143.947357 1251.350220,145.913635 1242.386108,155.134613 C1236.881226,160.797241 1234.340332,167.329315 1234.414429,175.312943 C1234.634277,198.959259 1234.493164,222.608932 1234.493164,246.544800 C1219.361328,246.544800 1204.462646,246.544800 1189.281250,246.544800 C1189.281250,202.930771 1189.281250,159.362213 1189.281250,115.480179 C1204.114502,115.480179 1218.992676,115.480179 1234.430908,115.480179 C1234.430908,119.848557 1234.430908,124.064331 1234.430908,128.584335 C1239.897095,124.681404 1244.618774,120.784798 1249.820557,117.697258 C1263.815674,109.390305 1278.717407,110.159599 1293.580078,114.678810 C1304.263550,117.927246 1314.824097,122.127914 1321.177002,132.044876 C1324.583496,137.362793 1326.509766,143.626099 1329.141724,149.445694 C1329.640747,150.548737 1330.316650,151.571716 1331.064209,152.281189 M1414.534912,210.177155 C1429.904175,204.170120 1437.833252,188.365112 1433.330078,172.712769 C1428.128296,154.632339 1409.840088,145.603607 1392.003418,152.309952 C1376.176392,158.260696 1368.481201,178.645416 1375.939819,194.862259 C1382.389893,208.886292 1396.509521,214.688873 1414.534912,210.177155 z" stroke="none" opacity="1.000000" fill="#FFFFFF"/>
    <path d="M1138.791016,195.618378 C1150.658203,189.892014 1161.801270,190.679794 1171.651245,198.827133 C1181.592773,207.050201 1184.389893,218.010361 1180.802612,230.321289 C1176.820923,243.985764 1162.637939,252.424393 1148.077148,250.183929 C1134.287842,248.062195 1124.086060,236.122635 1123.792480,222.180222 C1123.545166,210.433624 1128.702148,201.892746 1138.791016,195.618378 z" stroke="none" opacity="1.000000" fill="#FFFFFF"/>
    <path d="M681.368774,120.952652 C681.632019,144.706284 681.632019,168.432892 681.632019,192.876862 C673.431885,175.321960 658.357300,168.187347 641.535767,163.333588 C636.782410,161.962036 632.150635,160.050949 627.637939,158.002151 C624.214050,156.447617 622.290771,153.573639 622.842712,149.563660 C623.400757,145.509903 626.342651,144.396591 629.856628,143.776642 C639.698181,142.040344 648.945312,144.285004 658.016052,147.783478 C660.608948,148.783539 663.130859,149.967407 666.260620,151.314606 C671.037903,141.301453 675.713440,131.501526 680.219238,121.341721 C680.401489,120.963097 680.753540,120.944359 681.368774,120.952652 z" stroke="none" opacity="00000" fill="#F3F3F3"/>
    <path d="M1076.096680,192.941742 C1066.975098,211.818222 1049.898438,214.152527 1037.978394,210.497482 C1023.161194,205.954041 1014.902466,191.699524 1017.447327,175.154373 C1019.678101,160.651230 1032.001221,150.206680 1046.937012,150.160065 C1070.086304,150.087814 1083.204102,169.111115 1076.096680,192.941742 z" stroke="none" opacity="00000" fill="#FBFBFB"/>
    <path id="object-0" style="" d="M 216.333 73.8 C 233.772 106.032 238.047 138.915 229.187 173.211 C 214.654 229.455 165.528 261.777 106.535 254.512 C 50.294 247.587 13.145 205.869 10.393 147.923 C 8.147 100.668 24.079 62.052 63.506 38.249 C 102.508 14.702 144.008 15.938 182.806 40.606 C 195.335 48.573 204.735 61.825 216.333 73.8 Z" stroke="none" opacity="00000" fill="#FCFCFC"/>
    <path d="M1414.147949,210.291199 C1396.509521,214.688873 1382.389893,208.886292 1375.939819,194.862259 C1368.481201,178.645416 1376.176392,158.260696 1392.003418,152.309952 C1409.840088,145.603607 1428.128296,154.632339 1433.330078,172.712769 C1437.833252,188.365112 1429.904175,204.170120 1414.147949,210.291199 z" stroke="none" opacity="00000" fill="#FBFBFB"/>
    <path id="path-1" style="" d="M 216.333 73.8 C 233.772 106.032 238.047 138.915 229.187 173.211 C 214.654 229.455 165.528 261.777 106.535 254.512 C 50.294 247.587 13.145 205.869 10.393 147.923 C 8.147 100.668 24.079 62.052 63.506 38.249 C 102.508 14.702 144.008 15.938 182.806 40.606 C 195.335 48.573 204.735 61.825 216.333 73.8 Z" stroke="none" opacity="00000" fill="#FCFCFC"/>
</svg>